<svg width="93" height="86" viewBox="0 0 93 86" fill="none" xmlns="http://www.w3.org/2000/svg">
<path d="M62.6743 10.2614V74.7614C62.6743 81.9786 67.6734 86 72.9767 86C77.8826 86 83.2792 82.5795 83.2792 74.7614V10.75C83.2792 4.13387 78.3732 0 72.9767 0C67.5802 0 62.6743 4.55898 62.6743 10.2614Z" fill="#F9AB00"/>
<path d="M35.854 43.3938V74.8637C35.854 82.0147 40.8532 85.9992 46.1565 85.9992C51.0623 85.9992 56.4589 82.6102 56.4589 74.8637V43.8779C56.4589 37.3224 51.5529 33.2266 46.1565 33.2266C40.7599 33.2266 35.854 37.7436 35.854 43.3938Z" fill="#E37400"/>
<path d="M19.3023 85.9983C24.9923 85.9983 29.6049 81.4041 29.6049 75.737C29.6049 70.0698 24.9923 65.4756 19.3023 65.4756C13.6126 65.4756 9 70.0698 9 75.737C9 81.4041 13.6126 85.9983 19.3023 85.9983Z" fill="#E37400"/>
</svg>
